 <svg width="240" height="240" viewBox="0 0 240 240" fill="none" xmlns="http://www.w3.org/2000/svg">
<path d="M1.72953 69.7414C12.8549 70.6552 23.0683 71.0207 28.9045 71.0207C34.7408 71.0207 41.4889 70.6552 52.2495 69.7414L52.979 74.8586C40.0299 77.4172 41.8537 87.8345 47.8723 100.445L69.9406 146.683L91.4618 99.3483C96.9332 87.469 94.0151 77.4172 79.4245 74.8586L80.154 69.7414C89.4555 70.6552 92.9208 71.0207 98.7571 71.0207C104.593 71.0207 114.807 70.6552 123.743 69.7414L124.473 74.8586C109.882 81.6207 104.229 88.931 98.2099 102.272L66.1106 173H62.2805L29.0869 103.734C21.974 88.7483 14.8611 79.6103 1 74.8586L1.72953 69.7414Z" fill="white"/>
<path d="M179.951 173C151.682 173 132.714 150.521 132.714 119.817C132.714 90.5759 151.682 67 179.951 67C198.372 67 205.85 77.0517 220.076 71.569L222.447 73.3965C219.711 84.9103 217.887 97.5207 217.522 111.41L213.51 111.776C202.932 76.6862 179.769 68.8276 163.537 77.9655C147.305 87.1034 144.569 120.183 159.707 140.469C175.392 161.486 205.85 162.4 221.717 137.545L225 139.555C219.346 158.745 198.737 173 179.951 173Z" fill="white"/>
</svg>
