<svg width="625" height="59" viewBox="0 0 625 59" fill="none" xmlns="http://www.w3.org/2000/svg">
<path d="M0.370701 3.13597C5.36281 3.42769 10.1325 3.57354 14.6798 3.57354C18.4362 3.57354 23.3295 3.42769 29.3595 3.13597L29.582 5.25092C26.4681 5.63988 24.0709 6.4178 22.3904 7.58467C20.7593 8.70292 19.9437 10.2101 19.9437 12.1063C19.9437 13.419 20.2897 14.7804 20.9817 16.1904L36.4029 48.7899L50.4895 18.5241C51.3298 16.7252 51.7499 15.0478 51.7499 13.492C51.7499 11.2555 50.8849 9.43222 49.155 8.02225C47.4745 6.61228 45.102 5.6885 42.0375 5.25092L42.4082 3.13597C44.0887 3.23321 45.2997 3.28183 46.0411 3.28183C50.4895 3.47631 53.2821 3.57354 54.4189 3.57354C58.6697 3.57354 62.7721 3.42769 66.7262 3.13597L67.0228 5.25092C64.7492 5.63988 62.7968 6.46642 61.1657 7.73053C59.5841 8.94602 58.2248 10.4532 57.088 12.2522C55.9512 14.0511 54.6908 16.4335 53.3068 19.3993L34.9942 59H33.2148L12.9745 16.6279C11.4423 13.3704 9.7618 10.8422 7.93301 9.04326C6.10421 7.24434 3.45988 5.98022 0 5.25092L0.370701 3.13597Z" fill="#181618"/>
<path d="M77.5495 10.2101C76.1162 10.2101 74.8805 9.72394 73.8425 8.75154C72.854 7.73053 72.3597 6.51504 72.3597 5.10507C72.3597 3.6951 72.854 2.50391 73.8425 1.53152C74.8805 0.510506 76.1162 0 77.5495 0C78.9829 0 80.2186 0.510506 81.2566 1.53152C82.2945 2.50391 82.8135 3.6951 82.8135 5.10507C82.8135 6.51504 82.2945 7.73053 81.2566 8.75154C80.2186 9.72394 78.9829 10.2101 77.5495 10.2101ZM67.763 56.3745C70.6298 55.4508 72.5821 54.2353 73.6201 52.7281C74.7075 51.1722 75.2512 48.96 75.2512 46.0915V36.5377C75.2512 30.4116 72.854 27.1541 68.0596 26.7651V25.0148C73.546 23.3618 77.7473 20.6877 80.6634 16.9926L82.7394 17.5031C82.1957 20.9065 81.9238 24.6745 81.9238 28.8072V46.0915C81.9238 48.96 82.4428 51.1479 83.4808 52.6551C84.5682 54.1623 86.5452 55.4021 89.412 56.3745L89.1154 58.4166C85.705 58.0762 82.2204 57.9061 78.6617 57.9061C75.7949 57.9061 72.2609 58.0762 68.0596 58.4166L67.763 56.3745Z" fill="#181618"/>
<path d="M125.005 56.3745C127.525 55.4508 129.28 54.211 130.268 52.6551C131.257 51.0993 131.751 48.9114 131.751 46.0915V34.0581C131.751 26.2303 128.712 22.3164 122.632 22.3164C119.765 22.3164 117.368 23.0944 115.44 24.6502C113.513 26.1574 111.536 28.3453 109.509 31.2138V46.0915C109.509 48.96 110.028 51.1479 111.066 52.6551C112.154 54.1623 114.131 55.4021 116.997 56.3745L116.701 58.4166C113.29 58.0762 109.806 57.9061 106.247 57.9061C103.38 57.9061 99.8463 58.0762 95.645 58.4166L95.3484 56.3745C98.2152 55.4508 100.168 54.2353 101.206 52.7281C102.293 51.1722 102.837 48.96 102.837 46.0915V36.5377C102.837 30.4116 100.439 27.1541 95.645 26.7651V25.0148C101.131 23.3618 105.333 20.6877 108.249 16.9926L110.325 17.5031C109.781 20.9551 109.509 24.4557 109.509 28.0049C111.486 24.4557 114.007 21.6844 117.072 19.691C120.136 17.6976 123.126 16.7009 126.042 16.7009C134.297 16.7009 138.424 22.3894 138.424 33.7664V46.0915C138.424 48.96 138.943 51.1479 139.981 52.6551C141.068 54.1623 143.045 55.4021 145.912 56.3745L145.616 58.4166C142.205 58.0762 138.72 57.9061 135.162 57.9061C132.097 57.9061 128.81 58.0762 125.301 58.4166L125.005 56.3745Z" fill="#181618"/>
<path d="M169.171 59C165.415 59 162.079 58.1005 159.162 56.3016C156.246 54.4541 153.973 51.9258 152.341 48.7169C150.76 45.4594 149.969 41.8129 149.969 37.7775C149.969 33.8879 150.76 30.3387 152.341 27.1298C153.973 23.9209 156.246 21.3927 159.162 19.5451C162.079 17.6489 165.415 16.7009 169.171 16.7009C170.654 16.7009 171.964 16.8224 173.101 17.0655C174.287 17.3086 175.572 17.6733 176.956 18.1595C177.846 18.4026 178.735 18.6457 179.625 18.8888C180.515 19.0832 181.33 19.1805 182.072 19.1805C183.11 19.1805 184.246 18.9617 185.482 18.5241L186.446 19.2534C185.26 24.2126 184.592 29.2691 184.444 34.4227L182.813 34.5686C181.281 29.6094 179.155 25.89 176.437 23.4104C173.768 20.9308 170.901 19.691 167.837 19.691C165.86 19.691 164.08 20.1529 162.499 21.0766C160.719 22.0977 159.335 23.7264 158.347 25.9629C157.358 28.1508 156.864 30.6304 156.864 33.4017C156.864 35.6382 157.21 37.8504 157.902 40.0383C158.594 42.2262 159.607 44.2196 160.942 46.0185C162.474 48.012 164.303 49.5678 166.428 50.686C168.603 51.7557 170.852 52.2905 173.175 52.2905C175.696 52.2905 178.093 51.6584 180.366 50.3943C182.64 49.1302 184.568 47.2827 186.149 44.8517L187.484 45.6539C186.742 48.1335 185.408 50.3943 183.48 52.4363C181.553 54.4784 179.304 56.0828 176.734 57.2497C174.213 58.4166 171.692 59 169.171 59Z" fill="#181618"/>
<path d="M231.612 45.6539C230.426 49.6893 228.177 52.9225 224.865 55.3535C221.553 57.7845 217.402 59 212.41 59C208.851 59 205.539 58.0762 202.475 56.2287C199.46 54.3811 197.062 51.8529 195.283 48.644C193.504 45.3865 192.614 41.7643 192.614 37.7775C192.614 33.8879 193.405 30.3387 194.987 27.1298C196.618 23.9209 198.891 21.3927 201.807 19.5451C204.724 17.6489 208.06 16.7009 211.816 16.7009C215.128 16.7009 218.168 17.3572 220.936 18.67C223.704 19.9341 225.878 21.9518 227.46 24.7231C229.042 27.4944 229.709 31.0194 229.462 35.2979L199.509 35.225C199.657 39.3576 200.893 42.9555 203.216 46.0185C204.748 48.012 206.676 49.5678 208.999 50.686C211.322 51.7557 213.769 52.2905 216.339 52.2905C219.057 52.2905 221.652 51.6584 224.124 50.3943C226.595 49.1302 228.646 47.2827 230.277 44.8517L231.612 45.6539ZM221.158 32.3807C221.158 29.8525 220.664 27.5917 219.675 25.5983C218.736 23.6049 217.451 22.0733 215.82 21.0037C214.238 19.8855 212.508 19.3263 210.63 19.3263C208.752 19.3263 206.923 19.9098 205.144 21.0766C203.612 22.0977 202.351 23.6049 201.363 25.5983C200.423 27.5917 199.83 29.8282 199.583 32.3078L221.158 32.3807Z" fill="#181618"/>
<path d="M266.117 56.3745C268.638 55.4508 270.393 54.211 271.381 52.6551C272.37 51.0993 272.864 48.9114 272.864 46.0915V34.0581C272.864 26.2303 269.824 22.3164 263.745 22.3164C260.878 22.3164 258.481 23.0944 256.553 24.6502C254.625 26.1574 252.648 28.3453 250.622 31.2138V46.0915C250.622 48.96 251.141 51.1479 252.179 52.6551C253.266 54.1623 255.243 55.4021 258.11 56.3745L257.813 58.4166C254.403 58.0762 250.918 57.9061 247.36 57.9061C244.493 57.9061 240.959 58.0762 236.758 58.4166L236.461 56.3745C239.328 55.4508 241.28 54.2353 242.318 52.7281C243.406 51.1722 243.949 48.96 243.949 46.0915V36.5377C243.949 30.4116 241.552 27.1541 236.758 26.7651V25.0148C242.244 23.3618 246.445 20.6877 249.361 16.9926L251.437 17.5031C250.894 20.9551 250.622 24.4557 250.622 28.0049C252.599 24.4557 255.12 21.6844 258.184 19.691C261.249 17.6976 264.239 16.7009 267.155 16.7009C275.409 16.7009 279.537 22.3894 279.537 33.7664V46.0915C279.537 48.96 280.056 51.1479 281.094 52.6551C282.181 54.1623 284.158 55.4021 287.025 56.3745L286.728 58.4166C283.318 58.0762 279.833 57.9061 276.274 57.9061C273.21 57.9061 269.923 58.0762 266.414 58.4166L266.117 56.3745Z" fill="#181618"/>
<path d="M309.542 59C305.341 59 302.227 57.7359 300.201 55.2077C298.174 52.6794 297.161 48.6197 297.161 43.0284V32.089C297.161 29.3663 296.939 27.2757 296.494 25.8171C296.098 24.3098 295.382 23.2159 294.344 22.5352C293.306 21.8546 291.848 21.4413 289.969 21.2954V19.3263C293.232 18.597 295.777 17.3815 297.606 15.6798C299.435 13.9782 301.189 11.2798 302.87 7.58467L304.649 7.87639C304.452 10.4532 304.254 14.0268 304.056 18.597L324.593 17.7948L325.26 18.8158L322.22 22.8999L303.982 21.9518C303.883 25.6469 303.834 31.9675 303.834 40.9135C303.834 45.192 304.575 48.3523 306.058 50.3943C307.59 52.3877 309.888 53.3844 312.953 53.3844C315.276 53.3844 317.377 52.6551 319.255 51.1965C321.133 49.6893 322.987 47.5744 324.815 44.8517L326.446 45.7998C324.519 49.981 322.023 53.2386 318.958 55.5723C315.894 57.8574 312.755 59 309.542 59Z" fill="#181618"/>
<path d="M404.119 36.5377C402.685 43.5876 399.868 49.1059 395.667 53.0927C391.466 57.0309 385.979 59 379.208 59C374.067 59 369.347 57.7602 365.047 55.2806C360.796 52.7524 357.435 49.3247 354.964 44.9975C352.492 40.6704 351.257 35.9056 351.257 30.7033C351.257 25.6469 352.542 20.9551 355.112 16.6279C357.682 12.3008 361.093 8.87309 365.343 6.34487C369.644 3.76803 374.265 2.4796 379.208 2.4796C381.926 2.4796 385.312 2.9658 389.365 3.9382C392.528 4.66749 394.851 5.03214 396.334 5.03214C398.015 5.03214 399.497 4.66749 400.783 3.9382L402.117 4.81335C401.227 7.63329 400.535 10.5991 400.041 13.7108C399.547 16.8224 399.349 19.7882 399.448 22.6082L397.594 22.8269C395.914 16.944 393.393 12.5925 390.032 9.77256C386.671 6.904 382.593 5.46971 377.799 5.46971C374.29 5.46971 371.102 6.46642 368.235 8.45983C365.368 10.4046 363.095 13.103 361.414 16.555C359.783 19.9584 358.967 23.775 358.967 28.0049C358.967 32.5266 359.981 36.6836 362.007 40.4759C364.034 44.2196 366.777 47.1854 370.237 49.3733C373.746 51.5126 377.577 52.5822 381.728 52.5822C387.165 52.5822 391.441 51.2938 394.555 48.7169C397.718 46.0915 400.313 41.9345 402.339 36.246L404.119 36.5377Z" fill="#181618"/>
<path d="M408.562 56.3745C411.429 55.4508 413.381 54.2353 414.419 52.7281C415.506 51.1722 416.05 48.96 416.05 46.0915V36.5377C416.05 30.4116 413.653 27.1541 408.859 26.7651V25.0148C414.345 23.3618 418.546 20.6877 421.462 16.9926L423.538 17.5031C422.995 20.8092 422.723 24.164 422.723 27.5674C424.156 24.0181 426.158 21.4413 428.728 19.8368C431.298 18.1838 433.992 17.3572 436.809 17.3572C438.539 17.3572 440.17 17.6489 441.703 18.2324C441.159 21.4413 440.887 25.1607 440.887 29.3906V32.0161L439.256 32.4536C438.762 29.7309 437.749 27.7132 436.216 26.4005C434.733 25.0391 432.929 24.3585 430.804 24.3585C428.53 24.3585 426.603 25.3065 425.021 27.2027C423.489 29.0989 422.723 31.5056 422.723 34.4227V46.0915C422.723 48.96 423.242 51.1479 424.28 52.6551C425.367 54.1623 427.344 55.4021 430.211 56.3745L429.914 58.4166C426.504 58.0762 423.019 57.9061 419.461 57.9061C416.594 57.9061 413.06 58.0762 408.859 58.4166L408.562 56.3745Z" fill="#181618"/>
<path d="M485.166 45.6539C483.979 49.6893 481.73 52.9225 478.419 55.3535C475.107 57.7845 470.955 59 465.963 59C462.405 59 459.093 58.0762 456.029 56.2287C453.014 54.3811 450.616 51.8529 448.837 48.644C447.058 45.3865 446.168 41.7643 446.168 37.7775C446.168 33.8879 446.959 30.3387 448.54 27.1298C450.171 23.9209 452.445 21.3927 455.361 19.5451C458.277 17.6489 461.614 16.7009 465.37 16.7009C468.682 16.7009 471.722 17.3572 474.49 18.67C477.257 19.9341 479.432 21.9518 481.014 24.7231C482.596 27.4944 483.263 31.0194 483.016 35.2979L453.063 35.225C453.211 39.3576 454.447 42.9555 456.77 46.0185C458.302 48.012 460.23 49.5678 462.553 50.686C464.876 51.7557 467.323 52.2905 469.893 52.2905C472.611 52.2905 475.206 51.6584 477.678 50.3943C480.149 49.1302 482.2 47.2827 483.831 44.8517L485.166 45.6539ZM474.712 32.3807C474.712 29.8525 474.218 27.5917 473.229 25.5983C472.29 23.6049 471.005 22.0733 469.374 21.0037C467.792 19.8855 466.062 19.3263 464.184 19.3263C462.306 19.3263 460.477 19.9098 458.698 21.0766C457.165 22.0977 455.905 23.6049 454.916 25.5983C453.977 27.5917 453.384 29.8282 453.137 32.3078L474.712 32.3807Z" fill="#181618"/>
<path d="M506.622 59C502.421 59 499.307 57.7359 497.281 55.2077C495.254 52.6794 494.241 48.6197 494.241 43.0284V32.089C494.241 29.3663 494.019 27.2757 493.574 25.8171C493.178 24.3098 492.462 23.2159 491.424 22.5352C490.386 21.8546 488.928 21.4413 487.049 21.2954V19.3263C490.312 18.597 492.857 17.3815 494.686 15.6798C496.515 13.9782 498.269 11.2798 499.95 7.58467L501.729 7.87639C501.531 10.4532 501.334 14.0268 501.136 18.597L521.673 17.7948L522.34 18.8158L519.3 22.8999L501.062 21.9518C500.963 25.6469 500.914 31.9675 500.914 40.9135C500.914 45.192 501.655 48.3523 503.138 50.3943C504.67 52.3877 506.968 53.3844 510.033 53.3844C512.356 53.3844 514.456 52.6551 516.335 51.1965C518.213 49.6893 520.066 47.5744 521.895 44.8517L523.526 45.7998C521.599 49.981 519.103 53.2386 516.038 55.5723C512.974 57.8574 509.835 59 506.622 59Z" fill="#181618"/>
<path d="M547.667 59C543.811 59 540.252 58.0762 536.99 56.2287C533.778 54.3811 531.207 51.8529 529.28 48.644C527.401 45.3865 526.462 41.7643 526.462 37.7775C526.462 33.9365 527.401 30.4116 529.28 27.2027C531.207 23.9938 533.778 21.4413 536.99 19.5451C540.252 17.6489 543.811 16.7009 547.667 16.7009C551.522 16.7009 555.056 17.6246 558.269 19.4722C561.531 21.2711 564.101 23.775 565.979 26.9839C567.907 30.1928 568.871 33.7907 568.871 37.7775C568.871 41.6185 567.907 45.1677 565.979 48.4252C564.101 51.6827 561.531 54.2596 558.269 56.1558C555.006 58.0519 551.472 59 547.667 59ZM535.656 42.2262C537.237 46.3103 539.437 49.5435 542.254 51.9258C545.121 54.2596 548.037 55.4264 551.003 55.4264C552.189 55.4264 553.227 55.2563 554.117 54.9159C556.39 54.138 558.17 52.6308 559.455 50.3943C560.74 48.1092 561.382 45.3865 561.382 42.2262C561.382 39.4063 560.789 36.4405 559.603 33.3288C558.071 29.342 555.871 26.1817 553.005 23.848C550.138 21.5142 547.197 20.3473 544.182 20.3473C542.996 20.3473 541.958 20.5175 541.068 20.8578C538.844 21.6358 537.089 23.1673 535.804 25.4524C534.568 27.6889 533.951 30.3387 533.951 33.4017C533.951 36.3675 534.519 39.309 535.656 42.2262Z" fill="#181618"/>
<path d="M604.092 56.3745C606.613 55.4508 608.368 54.211 609.356 52.6551C610.345 51.0993 610.839 48.9114 610.839 46.0915V34.0581C610.839 26.2303 607.799 22.3164 601.72 22.3164C598.853 22.3164 596.456 23.0944 594.528 24.6502C592.601 26.1574 590.624 28.3453 588.597 31.2138V46.0915C588.597 48.96 589.116 51.1479 590.154 52.6551C591.241 54.1623 593.219 55.4021 596.085 56.3745L595.789 58.4166C592.378 58.0762 588.894 57.9061 585.335 57.9061C582.468 57.9061 578.934 58.0762 574.733 58.4166L574.436 56.3745C577.303 55.4508 579.255 54.2353 580.293 52.7281C581.381 51.1722 581.924 48.96 581.924 46.0915V36.5377C581.924 30.4116 579.527 27.1541 574.733 26.7651V25.0148C580.219 23.3618 584.421 20.6877 587.337 16.9926L589.413 17.5031C588.869 20.9551 588.597 24.4557 588.597 28.0049C590.574 24.4557 593.095 21.6844 596.159 19.691C599.224 17.6976 602.214 16.7009 605.13 16.7009C613.385 16.7009 617.512 22.3894 617.512 33.7664V46.0915C617.512 48.96 618.031 51.1479 619.069 52.6551C620.156 54.1623 622.133 55.4021 625 56.3745L624.703 58.4166C621.293 58.0762 617.808 57.9061 614.25 57.9061C611.185 57.9061 607.898 58.0762 604.389 58.4166L604.092 56.3745Z" fill="#181618"/>
</svg>
