<svg width="9" height="6" viewBox="0 0 9 6" fill="none" xmlns="http://www.w3.org/2000/svg">
    <path d="M1.91369 0.000244141C0.85755 0.000244141 0 0.863414 0 1.9356C0 2.94416 0.767314 3.76192 1.74218 3.85278C1.54359 4.21619 1.18253 4.60693 0.568675 4.97948C0.397149 5.07943 0.288859 5.26114 0.288859 5.45198C0.288859 5.84265 0.686056 6.11525 1.0471 5.95173C2.09429 5.47917 3.83639 4.32531 3.83639 1.93565C3.83639 0.863446 2.97886 0.000292914 1.91367 0.000292914L1.91369 0.000244141Z" fill="#181618"/>
    <path d="M6.66173 0.000113515C5.59653 0.000113515 4.73901 0.863283 4.73901 1.93547C4.73901 2.94403 5.50633 3.76179 6.48119 3.85265C6.2826 4.21606 5.92155 4.6068 5.30769 4.97935C5.13616 5.0793 5.02787 5.261 5.02787 5.45185C5.02787 5.84252 5.42507 6.11512 5.78611 5.9516C6.82417 5.47911 8.56638 4.33426 8.56638 1.93552C8.57545 0.863251 7.71791 0 6.66172 0L6.66173 0.000113515Z" fill="#181618"/>
</svg>
